<svg xmlns="http://www.w3.org/2000/svg" viewBox="0 0 620 416" width="620" height="416"><style>  .tl-bg{fill:#ffffff}  .tl-label{fill:#2d3748;font-family:system-ui, -apple-system, sans-serif;font-size:12px}  .tl-phase{fill:#2d3748;font-family:system-ui, -apple-system, sans-serif;font-size:13px;font-weight:600}  .tl-dur{fill:#2d3748;font-family:system-ui, -apple-system, sans-serif;font-size:11px;opacity:0.7}  @media(prefers-color-scheme:dark){    .tl-bg{fill:#1a202c}    .tl-label{fill:#e2e8f0}    .tl-phase{fill:#e2e8f0}    .tl-dur{fill:#e2e8f0}  }</style><rect width="620" height="416" class="tl-bg"/><text x="20" y="32.0" dominant-baseline="central" class="tl-phase">Lookups</text><text x="134.0" y="58.0" dominant-baseline="central" text-anchor="end" class="tl-label">ref_regions</text><rect x="140.0" y="46.0" width="30.4" height="24" rx="4" fill="#c6f6d5"/><text x="176.4" y="58.0" dominant-baseline="central" class="tl-dur">350ms</text><text x="20" y="102.0" dominant-baseline="central" class="tl-phase">Pre-hooks</text><text x="134.0" y="128.0" dominant-baseline="central" text-anchor="end" class="tl-label">quality_gate</text><rect x="140.0" y="116.0" width="17.4" height="24" rx="4" fill="#c6f6d5"/><text x="163.4" y="128.0" dominant-baseline="central" class="tl-dur">200ms</text><text x="20" y="172.0" dominant-baseline="central" class="tl-phase">Threads</text><text x="134.0" y="198.0" dominant-baseline="central" text-anchor="end" class="tl-label">dim_product</text><rect x="140.0" y="186.0" width="200.0" height="24" rx="4" fill="#c6f6d5"/><text x="346.0" y="198.0" dominant-baseline="central" class="tl-dur">2.3s</text><text x="134.0" y="226.0" dominant-baseline="central" text-anchor="end" class="tl-label">dim_customer</text><rect x="140.0" y="214.0" width="260.9" height="24" rx="4" fill="#c6f6d5"/><text x="406.9" y="226.0" dominant-baseline="central" class="tl-dur">3.0s</text><text x="134.0" y="254.0" dominant-baseline="central" text-anchor="end" class="tl-label">dim_store</text><rect x="140.0" y="242.0" width="113.0" height="24" rx="4" fill="#c6f6d5"/><text x="259.0" y="254.0" dominant-baseline="central" class="tl-dur">1.3s</text><text x="134.0" y="282.0" dominant-baseline="central" text-anchor="end" class="tl-label">fact_orders</text><rect x="140.0" y="270.0" width="400.0" height="24" rx="4" fill="#c6f6d5"/><text x="546.0" y="282.0" dominant-baseline="central" class="tl-dur">4.6s</text><text x="134.0" y="310.0" dominant-baseline="central" text-anchor="end" class="tl-label">fact_returns</text><rect x="140.0" y="298.0" width="243.5" height="24" rx="4" fill="#c6f6d5"/><text x="389.5" y="310.0" dominant-baseline="central" class="tl-dur">2.8s</text><text x="20" y="354.0" dominant-baseline="central" class="tl-phase">Post-hooks</text><text x="134.0" y="380.0" dominant-baseline="central" text-anchor="end" class="tl-label">log_message</text><rect x="140.0" y="368.0" width="4.3" height="24" rx="4" fill="#c6f6d5"/><text x="150.3" y="380.0" dominant-baseline="central" class="tl-dur">50ms</text></svg>