<svg xmlns="http://www.w3.org/2000/svg" viewBox="0 0 620 416" width="620" height="416"><style>  .tl-bg{fill:#ffffff}  .tl-label{fill:#2d3748;font-family:system-ui, -apple-system, sans-serif;font-size:12px}  .tl-phase{fill:#2d3748;font-family:system-ui, -apple-system, sans-serif;font-size:13px;font-weight:600}  .tl-dur{fill:#2d3748;font-family:system-ui, -apple-system, sans-serif;font-size:11px;opacity:0.7}  @media(prefers-color-scheme:dark){    .tl-bg{fill:#1a202c}    .tl-label{fill:#e2e8f0}    .tl-phase{fill:#e2e8f0}    .tl-dur{fill:#e2e8f0}  }</style><rect width="620" height="416" class="tl-bg"/><text x="20" y="32.0" dominant-baseline="central" class="tl-phase">Lookups</text><text x="134.0" y="58.0" dominant-baseline="central" text-anchor="end" class="tl-label">ref_regions</text><rect x="140.0" y="46.0" width="400.0" height="24" rx="4" fill="#c6f6d5"/><text x="546.0" y="58.0" dominant-baseline="central" class="tl-dur">350ms</text><text x="20" y="102.0" dominant-baseline="central" class="tl-phase">Pre-hooks</text><text x="134.0" y="128.0" dominant-baseline="central" text-anchor="end" class="tl-label">quality_gate</text><rect x="140.0" y="116.0" width="228.6" height="24" rx="4" fill="#c6f6d5"/><text x="374.6" y="128.0" dominant-baseline="central" class="tl-dur">200ms</text><text x="20" y="172.0" dominant-baseline="central" class="tl-phase">Threads</text><text x="134.0" y="198.0" dominant-baseline="central" text-anchor="end" class="tl-label">thread</text><rect x="140.0" y="186.0" width="4.0" height="24" rx="4" fill="#c6f6d5"/><text x="150.0" y="198.0" dominant-baseline="central" class="tl-dur">0ms</text><text x="134.0" y="226.0" dominant-baseline="central" text-anchor="end" class="tl-label">thread</text><rect x="140.0" y="214.0" width="4.0" height="24" rx="4" fill="#c6f6d5"/><text x="150.0" y="226.0" dominant-baseline="central" class="tl-dur">0ms</text><text x="134.0" y="254.0" dominant-baseline="central" text-anchor="end" class="tl-label">thread</text><rect x="140.0" y="242.0" width="4.0" height="24" rx="4" fill="#c6f6d5"/><text x="150.0" y="254.0" dominant-baseline="central" class="tl-dur">0ms</text><text x="134.0" y="282.0" dominant-baseline="central" text-anchor="end" class="tl-label">thread</text><rect x="140.0" y="270.0" width="4.0" height="24" rx="4" fill="#c6f6d5"/><text x="150.0" y="282.0" dominant-baseline="central" class="tl-dur">0ms</text><text x="134.0" y="310.0" dominant-baseline="central" text-anchor="end" class="tl-label">thread</text><rect x="140.0" y="298.0" width="4.0" height="24" rx="4" fill="#c6f6d5"/><text x="150.0" y="310.0" dominant-baseline="central" class="tl-dur">0ms</text><text x="20" y="354.0" dominant-baseline="central" class="tl-phase">Post-hooks</text><text x="134.0" y="380.0" dominant-baseline="central" text-anchor="end" class="tl-label">log_message</text><rect x="140.0" y="368.0" width="57.1" height="24" rx="4" fill="#c6f6d5"/><text x="203.1" y="380.0" dominant-baseline="central" class="tl-dur">50ms</text></svg>